<?xml version="1.0" encoding="UTF-8" standalone="no"?>
<!-- Created with Inkscape (http://www.inkscape.org/) -->

<svg
   xmlns:dc="http://purl.org/dc/elements/1.1/"
   xmlns:cc="http://creativecommons.org/ns#"
   xmlns:rdf="http://www.w3.org/1999/02/22-rdf-syntax-ns#"
   xmlns:svg="http://www.w3.org/2000/svg"
   xmlns="http://www.w3.org/2000/svg"
   xmlns:sodipodi="http://sodipodi.sourceforge.net/DTD/sodipodi-0.dtd"
   xmlns:inkscape="http://www.inkscape.org/namespaces/inkscape"
   width="269.63397mm"
   height="80.501549mm"
   viewBox="0 0 955.39596 285.24171"
   id="svg3488"
   version="1.1"
   inkscape:version="0.91 r13725"
   sodipodi:docname="logo.svg">
  <defs
     id="defs3490" />
  <sodipodi:namedview
     id="base"
     pagecolor="#ffffff"
     bordercolor="#666666"
     borderopacity="1.0"
     inkscape:pageopacity="0.0"
     inkscape:pageshadow="2"
     inkscape:zoom="0.7"
     inkscape:cx="852.1256"
     inkscape:cy="160.60212"
     inkscape:document-units="px"
     inkscape:current-layer="layer1"
     showgrid="false"
     inkscape:window-width="1600"
     inkscape:window-height="876"
     inkscape:window-x="1366"
     inkscape:window-y="24"
     inkscape:window-maximized="1"
     fit-margin-top="0"
     fit-margin-left="0"
     fit-margin-right="0"
     fit-margin-bottom="0" />
  <metadata
     id="metadata3493">
    <rdf:RDF>
      <cc:Work
         rdf:about="">
        <dc:format>image/svg+xml</dc:format>
        <dc:type
           rdf:resource="http://purl.org/dc/dcmitype/StillImage" />
        <dc:title></dc:title>
      </cc:Work>
    </rdf:RDF>
  </metadata>
  <g
     inkscape:label="Layer 1"
     inkscape:groupmode="layer"
     id="layer1"
     transform="translate(-44.040289,-525.69706)">
    <g
       transform="matrix(4.8088325,0,0,4.8088325,444.45184,-390.56983)"
       id="g3435">
      <g
         transform="translate(-42.736508,37.092063)"
         id="g4753">
        <g
           id="g4532-3-0"
           transform="matrix(1.0922527,0,0,1.0922527,-8.7980116,75.250005)">
          <path
             style="fill:#ff6600;fill-opacity:1;stroke:none;stroke-width:0;stroke-miterlimit:4;stroke-dasharray:none;stroke-opacity:1"
             d="m 14.221654,71.710929 a 1.1357878,1.1264931 25.791273 0 0 -0.439833,-0.09021 l -6.5826608,-0.02898 a 1.1357878,1.1264931 25.791273 0 0 -0.8858128,0.420674 l -4.0929936,5.102232 a 1.1357878,1.1264931 25.791273 0 0 -0.2369512,0.844754 1.1357878,1.1264931 25.791273 0 0 0.01918,0.108781 l 1.4775816,6.391069 a 1.1357878,1.1264931 25.791273 0 0 0.6151279,0.768014 l 5.9365119,2.867595 a 1.1357878,1.1264931 25.791273 0 0 0.983647,0.0054 l 5.924545,-2.814981 a 1.1357878,1.1264931 25.791273 0 0 0.61245,-0.762848 l 1.452236,-6.378327 a 1.1357878,1.1264931 25.791273 0 0 -0.220828,-0.955454 l -4.114435,-5.138485 a 1.1357878,1.1264931 25.791273 0 0 -0.447943,-0.338798 z"
             id="path3055-7-1-2-6-6"
             inkscape:connector-curvature="0"
             inkscape:export-filename="new.png"
             inkscape:export-xdpi="250.55"
             inkscape:export-ydpi="250.55" />
          <g
             transform="translate(-0.4031746,22.577778)"
             id="g4494-1-1">
            <path
               inkscape:export-ydpi="250.55"
               inkscape:export-xdpi="250.55"
               inkscape:export-filename="new.png"
               inkscape:connector-curvature="0"
               id="path3055-7-1-29-5"
               d="m -4.6137127,51.882987 a 1.1357878,1.1264931 0 0 0 -0.435268,0.110146 l -5.9395383,2.837974 a 1.1357878,1.1264931 0 0 0 -0.61454,0.764186 l -1.465324,6.374806 a 1.1357878,1.1264931 0 0 0 0.154205,0.863698 1.1357878,1.1264931 0 0 0 0.06457,0.08964 l 4.1111113,5.111543 a 1.1357878,1.1264931 0 0 0 0.888006,0.423872 l 6.59282,-0.0015 a 1.1357878,1.1264931 0 0 0 0.88800595,-0.423113 L 3.7399283,62.921945 a 1.1357878,1.1264931 0 0 0 0.219533,-0.953335 l -1.467602,-6.374809 a 1.1357878,1.1264931 0 0 0 -0.614541,-0.764187 l -5.940297,-2.836454 a 1.1357878,1.1264931 0 0 0 -0.550731,-0.110146 z"
               style="fill:#502d16;fill-opacity:1;stroke:none;stroke-width:0;stroke-miterlimit:4;stroke-dasharray:none;stroke-opacity:1" />
            <g
               transform="translate(-14.410102,50.955054)"
               id="g3349-3-7-3-5"
               style="fill:#0000ff;stroke:#ffffff">
              <path
                 id="path876-5-9-1-4"
                 d="m 8.236948,6.2914262 5.825001,0"
                 inkscape:connector-curvature="0"
                 style="fill:#0000ff;fill-rule:evenodd;stroke:#ffffff;stroke-width:0.79374999;stroke-linecap:butt;stroke-linejoin:round;stroke-miterlimit:10;stroke-opacity:1"
                 inkscape:export-xdpi="376.57999"
                 inkscape:export-ydpi="376.57999" />
              <path
                 id="path880-6-2-9-7"
                 d="m 5.723058,6.2914262 1.45834,0"
                 inkscape:connector-curvature="0"
                 style="fill:#0000ff;fill-rule:evenodd;stroke:#ffffff;stroke-width:0.79374999;stroke-linecap:butt;stroke-linejoin:round;stroke-miterlimit:10;stroke-opacity:1"
                 inkscape:export-xdpi="376.57999"
                 inkscape:export-ydpi="376.57999" />
              <a
                 id="a3346-2-0-4-6"
                 style="fill:#0000ff;stroke:#ffffff">
                <path
                   inkscape:export-ydpi="376.57999"
                   inkscape:export-xdpi="376.57999"
                   style="fill:#0000ff;fill-rule:evenodd;stroke:#ffffff;stroke-width:0.79374999;stroke-linecap:butt;stroke-linejoin:round;stroke-miterlimit:10;stroke-opacity:1"
                   inkscape:connector-curvature="0"
                   d="m 10.353619,8.4080928 3.70833,0"
                   id="path884-9-2-7-5" />
              </a>
              <path
                 id="path888-1-3-8-6"
                 d="m 7.839728,8.4080928 1.4583305,0"
                 inkscape:connector-curvature="0"
                 style="fill:#0000ff;fill-rule:evenodd;stroke:#ffffff;stroke-width:0.79374999;stroke-linecap:butt;stroke-linejoin:round;stroke-miterlimit:10;stroke-opacity:1"
                 inkscape:export-xdpi="376.57999"
                 inkscape:export-ydpi="376.57999" />
              <path
                 id="path892-2-7-4-9"
                 d="m 10.353619,10.52476 3.70833,0"
                 inkscape:connector-curvature="0"
                 style="fill:#0000ff;fill-rule:evenodd;stroke:#ffffff;stroke-width:0.79374999;stroke-linecap:butt;stroke-linejoin:round;stroke-miterlimit:10;stroke-opacity:1"
                 inkscape:export-xdpi="376.57999"
                 inkscape:export-ydpi="376.57999" />
              <path
                 id="path896-7-5-5-3"
                 d="m 7.839728,10.52476 1.4583305,0"
                 inkscape:connector-curvature="0"
                 style="fill:#0000ff;fill-rule:evenodd;stroke:#ffffff;stroke-width:0.79374999;stroke-linecap:butt;stroke-linejoin:round;stroke-miterlimit:10;stroke-opacity:1"
                 inkscape:export-xdpi="376.57999"
                 inkscape:export-ydpi="376.57999" />
              <path
                 id="path900-0-9-0-7"
                 d="m 8.236948,12.641428 5.825001,0"
                 inkscape:connector-curvature="0"
                 style="fill:#0000ff;fill-rule:evenodd;stroke:#ffffff;stroke-width:0.79374999;stroke-linecap:butt;stroke-linejoin:round;stroke-miterlimit:10;stroke-opacity:1"
                 inkscape:export-xdpi="376.57999"
                 inkscape:export-ydpi="376.57999" />
              <path
                 id="path904-9-2-3-4"
                 d="m 5.723058,12.641428 1.45834,0"
                 inkscape:connector-curvature="0"
                 style="fill:#0000ff;fill-rule:evenodd;stroke:#ffffff;stroke-width:0.79374999;stroke-linecap:butt;stroke-linejoin:round;stroke-miterlimit:10;stroke-opacity:1"
                 inkscape:export-xdpi="376.57999"
                 inkscape:export-ydpi="376.57999" />
            </g>
          </g>
          <path
             style="fill:#ff6600;fill-opacity:1;stroke:none;stroke-width:0;stroke-miterlimit:4;stroke-dasharray:none;stroke-opacity:1"
             d="m -16.803718,71.759292 a 1.1357878,1.1264931 25.791273 0 0 -0.43983,-0.0902 l -6.58266,-0.029 a 1.1357878,1.1264931 25.791273 0 0 -0.88581,0.42068 l -4.093,5.10223 a 1.1357878,1.1264931 25.791273 0 0 -0.23695,0.84475 1.1357878,1.1264931 25.791273 0 0 0.0192,0.10879 l 1.47758,6.39106 a 1.1357878,1.1264931 25.791273 0 0 0.61513,0.76802 l 5.93651,2.86759 a 1.1357878,1.1264931 25.791273 0 0 0.98365,0.005 l 5.92455,-2.81498 a 1.1357878,1.1264931 25.791273 0 0 0.61245,-0.76285 l 1.45223,-6.37832 a 1.1357878,1.1264931 25.791273 0 0 -0.22083,-0.95546 l -4.11443,-5.13848 a 1.1357878,1.1264931 25.791273 0 0 -0.44794,-0.3388 z"
             id="path3055-7-1-2-8-6-5"
             inkscape:connector-curvature="0"
             inkscape:export-filename="new.png"
             inkscape:export-xdpi="250.55"
             inkscape:export-ydpi="250.55" />
          <path
             style="fill:#ff6600;fill-opacity:1;stroke:none;stroke-width:0;stroke-miterlimit:4;stroke-dasharray:none;stroke-opacity:1"
             d="m -1.1362402,91.148868 a 1.1357878,1.1264931 25.791273 0 0 -0.43983,-0.0902 l -6.5826598,-0.029 a 1.1357878,1.1264931 25.791273 0 0 -0.88581,0.42068 l -4.093,5.10223 a 1.1357878,1.1264931 25.791273 0 0 -0.23695,0.84475 1.1357878,1.1264931 25.791273 0 0 0.0192,0.10879 l 1.47758,6.391062 a 1.1357878,1.1264931 25.791273 0 0 0.61513,0.76802 l 5.93651,2.86759 a 1.1357878,1.1264931 25.791273 0 0 0.9836498,0.005 l 5.92455,-2.81498 a 1.1357878,1.1264931 25.791273 0 0 0.61245,-0.76285 l 1.45223,-6.378322 a 1.1357878,1.1264931 25.791273 0 0 -0.22083,-0.95546 l -4.11443004,-5.13848 a 1.1357878,1.1264931 25.791273 0 0 -0.44793996,-0.3388 z"
             id="path3055-7-1-2-7-1-2"
             inkscape:connector-curvature="0"
             inkscape:export-filename="new.png"
             inkscape:export-xdpi="250.55"
             inkscape:export-ydpi="250.55" />
        </g>
        <g
           transform="matrix(1.4960215,0,0,1.4960215,-190.2715,70.727346)"
           style="font-style:normal;font-weight:normal;font-size:28.94875908px;line-height:125%;font-family:sans-serif;letter-spacing:0px;word-spacing:0px;fill:#502d16;fill-opacity:1;stroke:none;stroke-width:1px;stroke-linecap:butt;stroke-linejoin:miter;stroke-opacity:1"
           id="flowRoot4522-0-5">
          <path
             d="m 128.73416,78.856115 q 0,0.720892 0.0989,1.470054 0.11308,0.749162 0.35338,1.569 0.2403,0.819838 0.60781,1.569 0.38165,0.749162 0.94705,1.441784 0.57955,0.678486 1.30044,1.187351 0.72089,0.49473 1.71035,0.791568 0.98946,0.296838 2.1344,0.296838 1.03187,0 2.092,-0.353379 1.06014,-0.367513 1.92238,-0.989459 0.87638,-0.636081 1.42765,-1.597271 0.55127,-0.975324 0.55127,-2.077865 l -4.33948,0 0,-2.402973 7.05343,0 q 0,5.17346 -2.092,7.505758 -2.07787,2.318162 -6.57284,2.318162 -1.55487,0 -2.96838,-0.381649 -1.39938,-0.381648 -2.6574,-1.215621 -1.2439,-0.848109 -2.14855,-2.077865 -0.90464,-1.229757 -1.44178,-3.039055 -0.523,-1.809297 -0.523,-4.000243 0,-2.332298 0.70676,-4.268811 0.72089,-1.950649 2.00719,-3.293487 1.28629,-1.342838 3.09559,-2.077865 1.82343,-0.749162 3.97198,-0.749162 1.76689,0 3.20867,0.508864 1.44178,0.49473 2.40297,1.385244 0.97533,0.876378 1.59727,1.908243 0.62195,1.01773 0.97533,2.233352 l -2.65741,0 q -0.48059,-1.597271 -1.8517,-2.615 -1.35697,-1.01773 -3.73168,-1.01773 -2.19094,0 -3.84475,1.046 -1.63968,1.046 -2.48779,2.841162 -0.8481,1.795163 -0.8481,4.085055 z"
             style="font-style:normal;font-variant:normal;font-weight:normal;font-stretch:normal;font-family:Umpush;-inkscape-font-specification:Umpush"
             id="path3583"
             inkscape:connector-curvature="0" />
          <path
             d="m 153.66854,89.584683 q -3.36417,0 -5.20173,-2.03546 -1.83757,-2.049594 -1.83757,-5.69646 0,-3.63273 1.83757,-5.767135 1.8517,-2.134406 5.20173,-2.134406 3.25108,0 5.13105,2.092 1.89411,2.092001 1.89411,5.597514 0,1.766892 -0.39579,3.152136 -0.38164,1.385243 -1.046,2.275757 -0.65021,0.890513 -1.569,1.470054 -0.91878,0.579541 -1.90824,0.819838 -0.97532,0.226162 -2.10613,0.226162 z m 0,-13.541461 q -2.14854,0 -3.32176,1.597271 -1.17322,1.583135 -1.17322,4.21227 0,1.342838 0.29684,2.374703 0.31097,1.031865 0.7633,1.639676 0.46646,0.593676 1.0884,0.975325 0.63608,0.381648 1.18735,0.523 0.56541,0.127216 1.15909,0.127216 2.17681,0 3.32175,-1.54073 1.15908,-1.54073 1.15908,-4.184 0,-1.088406 -0.21202,-1.993055 -0.19789,-0.904648 -0.56541,-1.512459 -0.35338,-0.607811 -0.8057,-1.046 -0.43819,-0.452325 -0.96119,-0.692622 -0.50887,-0.254432 -0.98946,-0.367513 -0.48059,-0.113082 -0.94705,-0.113082 z"
             style="font-style:normal;font-variant:normal;font-weight:normal;font-stretch:normal;font-family:Umpush;-inkscape-font-specification:Umpush"
             id="path3585"
             inkscape:connector-curvature="0" />
          <path
             d="m 170.20665,76.043222 q -1.99306,0 -2.98252,1.272163 -0.98946,1.272162 -0.98946,3.675135 l 0,8.438677 -2.54432,0 0,-15.039785 2.54432,0 0,1.328702 q 0.66435,-0.876378 1.75276,-1.314567 1.0884,-0.452325 2.27576,-0.452325 1.30043,0 2.31816,0.381649 1.01773,0.381649 1.62554,0.975324 0.62195,0.593676 1.01773,1.413514 0.39578,0.805703 0.53713,1.583135 0.15549,0.777433 0.15549,1.611406 l 0,9.512947 -2.54432,0 0,-9.739109 q 0,-3.646866 -3.16627,-3.646866 z"
             style="font-style:normal;font-variant:normal;font-weight:normal;font-stretch:normal;font-family:Umpush;-inkscape-font-specification:Umpush"
             id="path3587"
             inkscape:connector-curvature="0" />
          <path
             d="m 180.0447,89.429197 0,-20.495948 2.54433,0 7.33613,18.615974 7.33614,-18.615974 2.54432,0 0,20.495948 -2.54432,0 0,-13.626272 -5.28654,13.626272 -4.09919,0 -5.28654,-13.626272 0,13.626272 -2.54433,0 z"
             style="font-style:normal;font-variant:normal;font-weight:normal;font-stretch:normal;font-family:Umpush;-inkscape-font-specification:Umpush"
             id="path3589"
             inkscape:connector-curvature="0" />
          <path
             d="m 216.10343,82.955304 q 0,3.208676 0.12722,4.367757 0.14135,1.144946 0.67848,2.106136 l -2.62913,0 q -0.39578,-0.777433 -0.50887,-1.851703 -1.30043,0.932919 -2.58673,1.470054 -1.27216,0.537135 -2.96837,0.537135 -1.17322,0 -2.092,-0.282703 -0.91879,-0.282702 -1.48419,-0.720892 -0.55127,-0.438189 -0.91879,-1.017729 -0.36751,-0.593676 -0.50886,-1.144947 -0.12722,-0.55127 -0.12722,-1.13081 0,-0.904649 0.33924,-1.724487 0.35338,-0.819838 1.20149,-1.526595 0.84811,-0.720892 2.10614,-1.060135 0.59367,-0.155486 3.09559,-0.49473 2.50192,-0.339243 3.73168,-0.763297 0,-0.664352 -0.0707,-1.144946 -0.0707,-0.49473 -0.29684,-0.98946 -0.21202,-0.508865 -0.60781,-0.819838 -0.38165,-0.325108 -1.06013,-0.523 -0.66435,-0.197892 -1.59727,-0.197892 -1.78103,0 -2.65741,0.650217 -0.86224,0.636081 -1.25803,2.219216 l -2.48778,-0.339243 q 0.81984,-4.62219 6.77073,-4.62219 1.14495,0 2.03546,0.155487 0.89051,0.155486 1.49832,0.409919 0.60782,0.254432 1.03187,0.692621 0.43819,0.43819 0.66435,0.862244 0.2403,0.424054 0.36751,1.07427 0.14136,0.636081 0.16963,1.173216 0.0424,0.523 0.0424,1.300433 l 0,3.335892 z m -10.47413,2.332298 q 0,0.296837 0.14135,0.650216 0.15548,0.339243 0.48059,0.706757 0.32511,0.367513 0.97533,0.607811 0.65021,0.240297 1.51246,0.240297 2.33229,0 3.57619,-1.187352 1.24389,-1.201486 1.24389,-3.420703 l 0,-1.07427 q -0.84811,0.353378 -2.06373,0.607811 -1.20149,0.254432 -2.16268,0.409919 -0.94705,0.155486 -1.83757,0.409919 -0.87637,0.254432 -1.3711,0.763297 -0.49473,0.49473 -0.49473,1.286298 z"
             style="font-style:normal;font-variant:normal;font-weight:normal;font-stretch:normal;font-family:Umpush;-inkscape-font-specification:Umpush"
             id="path3591"
             inkscape:connector-curvature="0" />
          <path
             d="m 232.89598,81.895169 q 0,3.378297 -1.72449,5.540973 -1.71035,2.148541 -4.63632,2.148541 -2.48779,0 -4.11333,-2.03546 l 0,7.392677 -2.54432,0 0,-20.524218 2.54432,0 0,1.272162 q 0.0141,-0.01413 0.21203,-0.212027 0.19789,-0.197892 0.32511,-0.310973 0.14135,-0.113081 0.40992,-0.310973 0.26856,-0.212027 0.55127,-0.339243 0.29683,-0.141352 0.66435,-0.282703 0.38165,-0.141351 0.84811,-0.212027 0.46646,-0.07068 0.97532,-0.07068 2.04959,0 3.53378,1.046 1.48419,1.031865 2.21922,2.812892 0.73503,1.781028 0.73503,4.085055 z m -6.74246,-5.851947 q -0.49473,0 -0.98946,0.169622 -0.4806,0.169622 -0.98946,0.593676 -0.49473,0.424054 -0.87638,1.060135 -0.38165,0.621946 -0.63608,1.653811 -0.2403,1.01773 -0.2403,2.304027 0,1.48419 0.45233,2.770487 0.46646,1.272162 1.35697,2.092 0.90465,0.805703 2.03546,0.805703 0.53713,0 1.06013,-0.155487 0.53714,-0.169621 1.08841,-0.57954 0.5654,-0.409919 0.97532,-1.031865 0.42406,-0.636081 0.69263,-1.667946 0.26856,-1.031865 0.26856,-2.332298 0,-0.862243 -0.14135,-1.653811 -0.14135,-0.805702 -0.46646,-1.54073 -0.32511,-0.735027 -0.8057,-1.286297 -0.46646,-0.55127 -1.18735,-0.876378 -0.72089,-0.325109 -1.59727,-0.325109 z"
             style="font-style:normal;font-variant:normal;font-weight:normal;font-stretch:normal;font-family:Umpush;-inkscape-font-specification:Umpush"
             id="path3593"
             inkscape:connector-curvature="0" />
        </g>
      </g>
    </g>
  </g>
</svg>
