<?xml version="1.0" encoding="UTF-8" standalone="no"?>
<!-- Created with Inkscape (http://www.inkscape.org/) -->

<svg
   xmlns:dc="http://purl.org/dc/elements/1.1/"
   xmlns:cc="http://creativecommons.org/ns#"
   xmlns:rdf="http://www.w3.org/1999/02/22-rdf-syntax-ns#"
   xmlns:svg="http://www.w3.org/2000/svg"
   xmlns="http://www.w3.org/2000/svg"
   xmlns:sodipodi="http://sodipodi.sourceforge.net/DTD/sodipodi-0.dtd"
   xmlns:inkscape="http://www.inkscape.org/namespaces/inkscape"
   width="297mm"
   height="210mm"
   viewBox="0 0 1052.3622 744.09448"
   id="svg3488"
   version="1.1"
   inkscape:version="0.91 r13725"
   sodipodi:docname="logo-inkscape.svg">
  <defs
     id="defs3490" />
  <sodipodi:namedview
     id="base"
     pagecolor="#ffffff"
     bordercolor="#666666"
     borderopacity="1.0"
     inkscape:pageopacity="0.0"
     inkscape:pageshadow="2"
     inkscape:zoom="0.7"
     inkscape:cx="896.16589"
     inkscape:cy="402.02556"
     inkscape:document-units="px"
     inkscape:current-layer="layer1"
     showgrid="false"
     inkscape:window-width="1600"
     inkscape:window-height="876"
     inkscape:window-x="1366"
     inkscape:window-y="24"
     inkscape:window-maximized="1" />
  <metadata
     id="metadata3493">
    <rdf:RDF>
      <cc:Work
         rdf:about="">
        <dc:format>image/svg+xml</dc:format>
        <dc:type
           rdf:resource="http://purl.org/dc/dcmitype/StillImage" />
        <dc:title></dc:title>
      </cc:Work>
    </rdf:RDF>
  </metadata>
  <g
     inkscape:label="Layer 1"
     inkscape:groupmode="layer"
     id="layer1"
     transform="translate(0,-308.26772)">
    <g
       transform="matrix(4.8088325,0,0,4.8088325,444.45184,-390.56983)"
       id="g3435">
      <g
         transform="translate(-42.736508,37.092063)"
         id="g4753">
        <g
           id="g4532-3-0"
           transform="matrix(1.0922527,0,0,1.0922527,-8.7980116,75.250005)">
          <path
             style="fill:#ff6600;fill-opacity:1;stroke:none;stroke-width:0;stroke-miterlimit:4;stroke-dasharray:none;stroke-opacity:1"
             d="m 14.221654,71.710929 a 1.1357878,1.1264931 25.791273 0 0 -0.439833,-0.09021 l -6.5826608,-0.02898 a 1.1357878,1.1264931 25.791273 0 0 -0.8858128,0.420674 l -4.0929936,5.102232 a 1.1357878,1.1264931 25.791273 0 0 -0.2369512,0.844754 1.1357878,1.1264931 25.791273 0 0 0.01918,0.108781 l 1.4775816,6.391069 a 1.1357878,1.1264931 25.791273 0 0 0.6151279,0.768014 l 5.9365119,2.867595 a 1.1357878,1.1264931 25.791273 0 0 0.983647,0.0054 l 5.924545,-2.814981 a 1.1357878,1.1264931 25.791273 0 0 0.61245,-0.762848 l 1.452236,-6.378327 a 1.1357878,1.1264931 25.791273 0 0 -0.220828,-0.955454 l -4.114435,-5.138485 a 1.1357878,1.1264931 25.791273 0 0 -0.447943,-0.338798 z"
             id="path3055-7-1-2-6-6"
             inkscape:connector-curvature="0"
             inkscape:export-filename="new.png"
             inkscape:export-xdpi="250.55"
             inkscape:export-ydpi="250.55" />
          <g
             transform="translate(-0.4031746,22.577778)"
             id="g4494-1-1">
            <path
               inkscape:export-ydpi="250.55"
               inkscape:export-xdpi="250.55"
               inkscape:export-filename="new.png"
               inkscape:connector-curvature="0"
               id="path3055-7-1-29-5"
               d="m -4.6137127,51.882987 a 1.1357878,1.1264931 0 0 0 -0.435268,0.110146 l -5.9395383,2.837974 a 1.1357878,1.1264931 0 0 0 -0.61454,0.764186 l -1.465324,6.374806 a 1.1357878,1.1264931 0 0 0 0.154205,0.863698 1.1357878,1.1264931 0 0 0 0.06457,0.08964 l 4.1111113,5.111543 a 1.1357878,1.1264931 0 0 0 0.888006,0.423872 l 6.59282,-0.0015 a 1.1357878,1.1264931 0 0 0 0.88800595,-0.423113 L 3.7399283,62.921945 a 1.1357878,1.1264931 0 0 0 0.219533,-0.953335 l -1.467602,-6.374809 a 1.1357878,1.1264931 0 0 0 -0.614541,-0.764187 l -5.940297,-2.836454 a 1.1357878,1.1264931 0 0 0 -0.550731,-0.110146 z"
               style="fill:#502d16;fill-opacity:1;stroke:none;stroke-width:0;stroke-miterlimit:4;stroke-dasharray:none;stroke-opacity:1" />
            <g
               transform="translate(-14.410102,50.955054)"
               id="g3349-3-7-3-5"
               style="fill:#0000ff;stroke:#ffffff">
              <path
                 id="path876-5-9-1-4"
                 d="m 8.236948,6.2914262 5.825001,0"
                 inkscape:connector-curvature="0"
                 style="fill:#0000ff;fill-rule:evenodd;stroke:#ffffff;stroke-width:0.79374999;stroke-linecap:butt;stroke-linejoin:round;stroke-miterlimit:10;stroke-opacity:1"
                 inkscape:export-xdpi="376.57999"
                 inkscape:export-ydpi="376.57999" />
              <path
                 id="path880-6-2-9-7"
                 d="m 5.723058,6.2914262 1.45834,0"
                 inkscape:connector-curvature="0"
                 style="fill:#0000ff;fill-rule:evenodd;stroke:#ffffff;stroke-width:0.79374999;stroke-linecap:butt;stroke-linejoin:round;stroke-miterlimit:10;stroke-opacity:1"
                 inkscape:export-xdpi="376.57999"
                 inkscape:export-ydpi="376.57999" />
              <a
                 id="a3346-2-0-4-6"
                 style="fill:#0000ff;stroke:#ffffff">
                <path
                   inkscape:export-ydpi="376.57999"
                   inkscape:export-xdpi="376.57999"
                   style="fill:#0000ff;fill-rule:evenodd;stroke:#ffffff;stroke-width:0.79374999;stroke-linecap:butt;stroke-linejoin:round;stroke-miterlimit:10;stroke-opacity:1"
                   inkscape:connector-curvature="0"
                   d="m 10.353619,8.4080928 3.70833,0"
                   id="path884-9-2-7-5" />
              </a>
              <path
                 id="path888-1-3-8-6"
                 d="m 7.839728,8.4080928 1.4583305,0"
                 inkscape:connector-curvature="0"
                 style="fill:#0000ff;fill-rule:evenodd;stroke:#ffffff;stroke-width:0.79374999;stroke-linecap:butt;stroke-linejoin:round;stroke-miterlimit:10;stroke-opacity:1"
                 inkscape:export-xdpi="376.57999"
                 inkscape:export-ydpi="376.57999" />
              <path
                 id="path892-2-7-4-9"
                 d="m 10.353619,10.52476 3.70833,0"
                 inkscape:connector-curvature="0"
                 style="fill:#0000ff;fill-rule:evenodd;stroke:#ffffff;stroke-width:0.79374999;stroke-linecap:butt;stroke-linejoin:round;stroke-miterlimit:10;stroke-opacity:1"
                 inkscape:export-xdpi="376.57999"
                 inkscape:export-ydpi="376.57999" />
              <path
                 id="path896-7-5-5-3"
                 d="m 7.839728,10.52476 1.4583305,0"
                 inkscape:connector-curvature="0"
                 style="fill:#0000ff;fill-rule:evenodd;stroke:#ffffff;stroke-width:0.79374999;stroke-linecap:butt;stroke-linejoin:round;stroke-miterlimit:10;stroke-opacity:1"
                 inkscape:export-xdpi="376.57999"
                 inkscape:export-ydpi="376.57999" />
              <path
                 id="path900-0-9-0-7"
                 d="m 8.236948,12.641428 5.825001,0"
                 inkscape:connector-curvature="0"
                 style="fill:#0000ff;fill-rule:evenodd;stroke:#ffffff;stroke-width:0.79374999;stroke-linecap:butt;stroke-linejoin:round;stroke-miterlimit:10;stroke-opacity:1"
                 inkscape:export-xdpi="376.57999"
                 inkscape:export-ydpi="376.57999" />
              <path
                 id="path904-9-2-3-4"
                 d="m 5.723058,12.641428 1.45834,0"
                 inkscape:connector-curvature="0"
                 style="fill:#0000ff;fill-rule:evenodd;stroke:#ffffff;stroke-width:0.79374999;stroke-linecap:butt;stroke-linejoin:round;stroke-miterlimit:10;stroke-opacity:1"
                 inkscape:export-xdpi="376.57999"
                 inkscape:export-ydpi="376.57999" />
            </g>
          </g>
          <path
             style="fill:#ff6600;fill-opacity:1;stroke:none;stroke-width:0;stroke-miterlimit:4;stroke-dasharray:none;stroke-opacity:1"
             d="m -16.803718,71.759292 a 1.1357878,1.1264931 25.791273 0 0 -0.43983,-0.0902 l -6.58266,-0.029 a 1.1357878,1.1264931 25.791273 0 0 -0.88581,0.42068 l -4.093,5.10223 a 1.1357878,1.1264931 25.791273 0 0 -0.23695,0.84475 1.1357878,1.1264931 25.791273 0 0 0.0192,0.10879 l 1.47758,6.39106 a 1.1357878,1.1264931 25.791273 0 0 0.61513,0.76802 l 5.93651,2.86759 a 1.1357878,1.1264931 25.791273 0 0 0.98365,0.005 l 5.92455,-2.81498 a 1.1357878,1.1264931 25.791273 0 0 0.61245,-0.76285 l 1.45223,-6.37832 a 1.1357878,1.1264931 25.791273 0 0 -0.22083,-0.95546 l -4.11443,-5.13848 a 1.1357878,1.1264931 25.791273 0 0 -0.44794,-0.3388 z"
             id="path3055-7-1-2-8-6-5"
             inkscape:connector-curvature="0"
             inkscape:export-filename="new.png"
             inkscape:export-xdpi="250.55"
             inkscape:export-ydpi="250.55" />
          <path
             style="fill:#ff6600;fill-opacity:1;stroke:none;stroke-width:0;stroke-miterlimit:4;stroke-dasharray:none;stroke-opacity:1"
             d="m -1.1362402,91.148868 a 1.1357878,1.1264931 25.791273 0 0 -0.43983,-0.0902 l -6.5826598,-0.029 a 1.1357878,1.1264931 25.791273 0 0 -0.88581,0.42068 l -4.093,5.10223 a 1.1357878,1.1264931 25.791273 0 0 -0.23695,0.84475 1.1357878,1.1264931 25.791273 0 0 0.0192,0.10879 l 1.47758,6.391062 a 1.1357878,1.1264931 25.791273 0 0 0.61513,0.76802 l 5.93651,2.86759 a 1.1357878,1.1264931 25.791273 0 0 0.9836498,0.005 l 5.92455,-2.81498 a 1.1357878,1.1264931 25.791273 0 0 0.61245,-0.76285 l 1.45223,-6.378322 a 1.1357878,1.1264931 25.791273 0 0 -0.22083,-0.95546 l -4.11443004,-5.13848 a 1.1357878,1.1264931 25.791273 0 0 -0.44793996,-0.3388 z"
             id="path3055-7-1-2-7-1-2"
             inkscape:connector-curvature="0"
             inkscape:export-filename="new.png"
             inkscape:export-xdpi="250.55"
             inkscape:export-ydpi="250.55" />
        </g>
        <flowRoot
           xml:space="preserve"
           id="flowRoot4522-0-5"
           style="font-style:normal;font-weight:normal;font-size:28.94875908px;line-height:125%;font-family:sans-serif;letter-spacing:0px;word-spacing:0px;fill:#502d16;fill-opacity:1;stroke:none;stroke-width:1px;stroke-linecap:butt;stroke-linejoin:miter;stroke-opacity:1"
           transform="matrix(1.4960215,0,0,1.4960215,-190.2715,70.727346)"><flowRegion
             id="flowRegion4524-6-4"><rect
               id="rect4526-3-7"
               width="155.35162"
               height="36.918861"
               x="124.74831"
               y="64.957092"
               style="fill:#502d16;fill-opacity:1" /></flowRegion><flowPara
             id="flowPara4528-2-4"
             style="font-style:normal;font-variant:normal;font-weight:normal;font-stretch:normal;font-family:Umpush;-inkscape-font-specification:Umpush">GonMap</flowPara></flowRoot>      </g>
    </g>
  </g>
</svg>
